<svg id="Capa_1" enable-background="new 0 0 512 512" height="512" viewBox="0 0 512 512" width="512" xmlns="http://www.w3.org/2000/svg"><g><path d="m218.5 512h-60c-8.284 0-15-6.716-15-15v-62c0-8.284 6.716-15 15-15h60c8.284 0 15 6.716 15 15v62c0 8.284-6.716 15-15 15z"/><path d="m353.5 512h-60c-8.284 0-15-6.716-15-15v-302c0-8.284 6.716-15 15-15h60c8.284 0 15 6.716 15 15v302c0 8.284-6.716 15-15 15z"/><path d="m353.5 90h-60c-8.284 0-15-6.716-15-15s6.716-15 15-15h60c8.284 0 15 6.716 15 15s-6.716 15-15 15z"/><path d="m353.5 30h-60c-8.284 0-15-6.716-15-15s6.716-15 15-15h60c8.284 0 15 6.716 15 15s-6.716 15-15 15z"/><path d="m218.5 330h-60c-8.284 0-15-6.716-15-15s6.716-15 15-15h60c8.284 0 15 6.716 15 15s-6.716 15-15 15z"/><path d="m76 270h-60c-8.284 0-15-6.716-15-15s6.716-15 15-15h60c8.284 0 15 6.716 15 15s-6.716 15-15 15z"/><path d="m218.5 390h-60c-8.284 0-15-6.716-15-15s6.716-15 15-15h60c8.284 0 15 6.716 15 15s-6.716 15-15 15z"/><path d="m218.5 270h-60c-8.284 0-15-6.716-15-15s6.716-15 15-15h60c8.284 0 15 6.716 15 15s-6.716 15-15 15z"/><path d="m218.5 210h-60c-8.284 0-15-6.716-15-15s6.716-15 15-15h60c8.284 0 15 6.716 15 15s-6.716 15-15 15z"/><path d="m76 210h-60c-8.284 0-15-6.716-15-15s6.716-15 15-15h60c8.284 0 15 6.716 15 15s-6.716 15-15 15z"/><path d="m76 150h-60c-8.284 0-15-6.716-15-15s6.716-15 15-15h60c8.284 0 15 6.716 15 15s-6.716 15-15 15z"/><path d="m496 210h-60c-8.284 0-15-6.716-15-15s6.716-15 15-15h60c8.284 0 15 6.716 15 15s-6.716 15-15 15z"/><path d="m496 150h-60c-8.284 0-15-6.716-15-15s6.716-15 15-15h60c8.284 0 15 6.716 15 15s-6.716 15-15 15z"/><path d="m353.5 150h-60c-8.284 0-15-6.716-15-15s6.716-15 15-15h60c8.284 0 15 6.716 15 15s-6.716 15-15 15z"/><path d="m76 512h-60c-8.284 0-15-6.716-15-15v-182c0-8.284 6.716-15 15-15h60c8.284 0 15 6.716 15 15v182c0 8.284-6.716 15-15 15z"/><path d="m496 512h-60c-8.284 0-15-6.716-15-15v-242c0-8.284 6.716-15 15-15h60c8.284 0 15 6.716 15 15v242c0 8.284-6.716 15-15 15z"/></g></svg>